<svg width="220" height="220" viewBox="0 0 220 220" fill="none" xmlns="http://www.w3.org/2000/svg">
<g clip-path="url(#clip0_11_1772)">
<path d="M165.212 169.823L171.169 186.05L48.7137 185.913L54.7054 169.697L165.212 169.823Z" fill="#FCBC1D"/>
<path d="M43.9741 152.68C46.3516 152.68 48.2829 154.606 48.2829 156.988C48.2829 159.366 46.3516 161.297 43.9741 161.297C41.5917 161.297 39.6654 159.366 39.6654 156.988C39.6654 154.606 41.5917 152.68 43.9741 152.68Z" fill="#FCBC1D"/>
<path d="M76.9842 152.68C79.3667 152.68 81.293 154.606 81.293 156.988C81.293 159.366 79.3667 161.297 76.9842 161.297C74.6068 161.297 72.6755 159.366 72.6755 156.988C72.6755 154.606 74.6068 152.68 76.9842 152.68Z" fill="#FCBC1D"/>
<path d="M109.999 152.68C112.377 152.68 114.308 154.606 114.308 156.988C114.308 159.366 112.377 161.297 109.999 161.297C107.617 161.297 105.691 159.366 105.691 156.988C105.691 154.606 107.617 152.68 109.999 152.68Z" fill="#FCBC1D"/>
<path d="M143.01 152.68C145.392 152.68 147.318 154.606 147.318 156.988C147.318 159.366 145.392 161.297 143.01 161.297C140.632 161.297 138.701 159.366 138.701 156.988C138.701 154.606 140.632 152.68 143.01 152.68Z" fill="#FCBC1D"/>
<path d="M176.025 152.68C178.402 152.68 180.334 154.606 180.334 156.988C180.334 159.366 178.402 161.297 176.025 161.297C173.642 161.297 171.716 159.366 171.716 156.988C171.716 154.606 173.642 152.68 176.025 152.68Z" fill="#FCBC1D"/>
<path d="M14.411 130.365L205.563 130.583L210.627 130.588C214.408 130.593 217.47 133.66 217.465 137.442C217.46 141.213 214.398 144.275 210.622 144.275C210.617 144.275 210.617 144.275 210.611 144.275L205.578 144.27L14.4009 144.052L9.36721 144.047C5.59072 144.042 2.52896 140.975 2.53403 137.198C2.5391 133.422 5.60085 130.36 9.37228 130.36C9.37735 130.36 9.37735 130.36 9.38242 130.36L14.411 130.365Z" fill="#FCBC1D"/>
<path opacity="0.25" d="M14.4009 144.163L9.36721 144.158C5.59072 144.153 2.52896 141.086 2.53403 137.31C2.5391 133.533 5.60085 130.472 9.37228 130.472C9.37735 130.472 9.37735 130.472 9.38242 130.472L14.411 130.477L49.3119 130.492C45.7585 130.73 42.9451 133.691 42.94 137.31C42.935 141.086 45.9967 144.153 49.7732 144.158L54.8068 144.163" fill="black"/>
<path d="M14.4009 144.052L205.578 144.27C202.425 158.899 189.402 169.849 173.83 169.833L165.212 169.823L54.7055 169.697L46.088 169.686C37.1258 169.676 29.0202 166.037 23.1603 160.162C18.8313 155.822 15.729 150.267 14.4009 144.052ZM180.334 156.988C180.334 154.606 178.402 152.679 176.025 152.679C173.642 152.679 171.716 154.606 171.716 156.988C171.716 159.366 173.642 161.297 176.025 161.297C178.402 161.297 180.334 159.366 180.334 156.988ZM147.318 156.988C147.318 154.606 145.392 152.679 143.01 152.679C140.632 152.679 138.701 154.606 138.701 156.988C138.701 159.366 140.632 161.297 143.01 161.297C145.392 161.297 147.318 159.366 147.318 156.988ZM114.308 156.988C114.308 154.606 112.377 152.679 109.999 152.679C107.617 152.679 105.691 154.606 105.691 156.988C105.691 159.366 107.617 161.297 109.999 161.297C112.377 161.297 114.308 159.366 114.308 156.988ZM81.293 156.988C81.293 154.606 79.3668 152.679 76.9843 152.679C74.6069 152.679 72.6755 154.606 72.6755 156.988C72.6755 159.366 74.6069 161.297 76.9843 161.297C79.3668 161.297 81.293 159.366 81.293 156.988ZM48.2829 156.988C48.2829 154.606 46.3516 152.679 43.9741 152.679C41.5917 152.679 39.6654 154.606 39.6654 156.988C39.6654 159.366 41.5917 161.297 43.9741 161.297C46.3516 161.297 48.2829 159.366 48.2829 156.988Z" fill="#F73E3E"/>
<path d="M205.563 130.477V130.583L14.411 130.365C17.5894 115.786 30.5714 104.878 46.1032 104.878H173.845C182.807 104.878 190.918 108.507 196.788 114.377C201.122 118.711 204.229 124.262 205.563 130.477Z" fill="#F73E3E"/>
<path d="M192.057 124.485C191.336 124.485 190.621 124.18 190.12 123.587C189.735 123.132 189.325 122.686 188.903 122.263C184.883 118.243 179.536 116.03 173.846 116.03C172.446 116.03 171.311 114.895 171.311 113.496C171.311 112.096 172.446 110.961 173.846 110.961C180.89 110.961 187.51 113.702 192.487 118.679C193.009 119.201 193.515 119.751 193.991 120.315C194.895 121.384 194.761 122.983 193.692 123.886C193.216 124.288 192.635 124.485 192.057 124.485Z" fill="white"/>
<g opacity="0.25">
<path opacity="0.25" d="M48.724 185.913L54.7157 169.697L76.1986 169.722L70.217 185.913" fill="black"/>
<path opacity="0.25" d="M76.2087 169.696L67.5912 169.686C58.629 169.676 50.5235 166.037 44.6636 160.161C40.3396 155.827 37.2424 150.282 35.9092 144.077L14.411 144.052C15.7391 150.267 18.8414 155.822 23.1705 160.161C29.0304 166.037 37.1359 169.676 46.0981 169.686L54.7156 169.696L76.1986 169.722" fill="black"/>
<path opacity="0.25" d="M14.4212 130.365C17.5995 115.786 30.5815 104.878 46.1133 104.878H67.6064C52.0746 104.878 39.0926 115.786 35.9142 130.365" fill="black"/>
</g>
<path d="M175.366 99.3421V104.878H173.845H46.1032H44.5825V99.3421C44.5825 63.2246 73.8617 33.9504 109.974 33.9504C146.087 33.9504 175.366 63.2246 175.366 99.3421Z" fill="#61CCF2"/>
<path opacity="0.25" d="M122.9 35.2279C92.9774 41.2246 70.435 67.65 70.435 99.3421V104.878H44.5825V99.3421C44.5825 63.2246 73.8617 33.9504 109.974 33.9504C114.4 33.9504 118.723 34.3915 122.9 35.2279Z" fill="black"/>
<path d="M173.861 172.368C173.85 172.368 173.84 172.368 173.828 172.368L165.21 172.358C163.81 172.356 162.677 171.22 162.678 169.82C162.68 168.422 163.814 167.289 165.213 167.289C165.214 167.289 165.215 167.289 165.216 167.289L173.833 167.299C173.843 167.299 173.853 167.299 173.862 167.299C187.864 167.299 200.157 157.393 203.101 143.736C203.396 142.367 204.741 141.497 206.113 141.793C207.481 142.088 208.351 143.436 208.056 144.804C204.613 160.78 190.234 172.368 173.861 172.368Z" fill="#333333"/>
<path d="M54.7054 172.231C54.7044 172.231 54.7034 172.231 54.7024 172.231L46.0849 172.221C36.7389 172.21 27.9602 168.563 21.3658 161.951C16.5942 157.169 13.3287 151.162 11.922 144.582C11.6295 143.213 12.5019 141.866 13.8711 141.573C15.2382 141.28 16.5866 142.153 16.8796 143.522C18.0815 149.146 20.8736 154.281 24.9547 158.371C30.5931 164.024 38.0995 167.142 46.091 167.151L54.7085 167.161C56.108 167.163 57.242 168.299 57.24 169.699C57.2385 171.099 56.104 172.231 54.7054 172.231Z" fill="#333333"/>
<path d="M205.56 133.012C204.391 133.012 203.339 132.198 203.084 131.008C201.878 125.386 199.082 120.255 194.996 116.17C189.349 110.522 181.837 107.412 173.845 107.412C172.445 107.412 171.311 106.277 171.311 104.878C171.311 103.478 172.445 102.343 173.845 102.343C183.191 102.343 191.975 105.98 198.58 112.585C203.358 117.363 206.629 123.366 208.04 129.945C208.334 131.314 207.463 132.661 206.094 132.956C205.915 132.994 205.736 133.012 205.56 133.012Z" fill="#333333"/>
<path d="M14.3872 133.012C14.1561 133.012 13.9209 132.98 13.6877 132.913C12.3794 132.538 11.6073 131.201 11.9206 129.89C11.9277 129.856 11.9353 129.823 11.9429 129.79C15.4279 113.884 29.7887 102.343 46.1037 102.343C47.5033 102.343 48.6383 103.478 48.6383 104.878C48.6383 106.277 47.5033 107.412 46.1037 107.412C32.1423 107.412 19.8558 117.292 16.8878 130.905C16.8848 130.92 16.8812 130.935 16.8772 130.95C16.861 131.029 16.8427 131.104 16.8224 131.175C16.5036 132.288 15.4893 133.012 14.3872 133.012Z" fill="#333333"/>
<path d="M176.237 133.075C176.237 133.075 176.237 133.075 176.236 133.075L156.974 133.068C155.574 133.068 154.439 131.933 154.44 130.533C154.441 129.133 155.575 127.999 156.975 127.999C156.975 127.999 156.975 127.999 156.976 127.999L176.238 128.006C177.638 128.006 178.772 129.141 178.772 130.541C178.771 131.941 177.637 133.075 176.237 133.075Z" fill="#333333"/>
<path d="M210.622 146.81L9.3652 146.582C6.86105 146.579 4.50796 145.6 2.73935 143.828C0.969715 142.055 -0.00304962 139.699 -8.14817e-06 137.196C0.00708863 132.029 4.21193 127.826 9.3728 127.826L146.475 127.982C147.875 127.983 149.008 129.119 149.007 130.519C149.005 131.918 147.871 133.051 146.472 133.051C146.471 133.051 146.47 133.051 146.469 133.051L9.3799 132.895C7.00248 132.895 5.07165 134.828 5.06861 137.202C5.06709 138.351 5.51368 139.432 6.32677 140.247C7.13985 141.062 8.22059 141.511 9.37077 141.513L210.614 141.741C212.994 141.741 214.928 139.811 214.931 137.439C214.932 136.287 214.485 135.205 213.672 134.39C212.859 133.575 211.776 133.125 210.624 133.123L187.529 133.097C186.129 133.096 184.996 131.96 184.998 130.56C184.999 129.161 186.134 128.028 187.532 128.028C187.533 128.028 187.534 128.028 187.535 128.028L210.63 128.054C213.136 128.057 215.491 129.036 217.26 130.809C219.03 132.582 220.004 134.94 220 137.445C219.993 142.609 215.786 146.81 210.622 146.81Z" fill="#333333"/>
<path d="M175.366 107.412H44.583C43.1834 107.412 42.0484 106.277 42.0484 104.878V99.3422C42.0484 61.8874 72.5199 31.4159 109.975 31.4159C120.092 31.4159 129.827 33.5875 138.911 37.8704C140.176 38.4676 140.719 39.9776 140.122 41.2439C139.525 42.5102 138.015 43.0516 136.749 42.4554C128.347 38.4939 119.339 36.485 109.975 36.485C75.3155 36.485 47.118 64.6825 47.118 99.3422V102.343H172.833V99.3422C172.833 81.952 165.529 65.1783 152.793 53.3231C151.769 52.3696 151.711 50.7658 152.665 49.7413C153.619 48.7168 155.222 48.659 156.247 49.613C170.009 62.4237 177.902 80.5494 177.902 99.3422V104.878C177.901 106.278 176.766 107.412 175.366 107.412Z" fill="#333333"/>
<path d="M166.748 99.5748C165.472 99.5748 164.374 98.6137 164.232 97.316L164.146 96.5359C164.136 96.4421 164.132 96.3488 164.132 96.2571C164.132 94.9807 165.093 93.8827 166.39 93.7408C167.78 93.5841 169.033 94.5929 169.186 95.9844L169.271 96.7645C169.282 96.8583 169.286 96.9515 169.286 97.0438C169.286 98.3197 168.325 99.4182 167.028 99.5601C166.933 99.5703 166.84 99.5748 166.748 99.5748Z" fill="white"/>
<path d="M171.169 188.584C171.168 188.584 171.167 188.584 171.166 188.584L161.676 188.573C160.276 188.572 159.143 187.436 159.144 186.036C159.146 184.637 160.28 183.504 161.679 183.504C161.68 183.504 161.681 183.504 161.682 183.504L167.537 183.511L163.442 172.356L56.4705 172.233L52.3514 183.382L151.037 183.485C152.437 183.486 153.571 184.622 153.569 186.022C153.568 187.42 152.433 188.554 151.035 188.554C151.034 188.554 151.033 188.554 151.032 188.554L48.7112 188.447C47.8824 188.447 47.1068 188.041 46.6334 187.36C46.1599 186.68 46.0489 185.811 46.3363 185.034L52.328 168.818C52.696 167.822 53.6465 167.172 54.7085 167.162L165.215 167.289C166.277 167.29 167.226 167.953 167.592 168.95L173.548 185.176C173.833 185.954 173.721 186.823 173.246 187.502C172.772 188.18 171.996 188.584 171.169 188.584Z" fill="#333333"/>
<path d="M43.9741 163.832C40.2007 163.832 37.1308 160.762 37.1308 156.989C37.1308 153.215 40.2007 150.145 43.9741 150.145C47.7476 150.145 50.8175 153.215 50.8175 156.989C50.8175 160.762 47.7476 163.832 43.9741 163.832ZM43.9741 155.215C42.9958 155.215 42.2 156.01 42.2 156.989C42.2 157.967 42.9958 158.763 43.9741 158.763C44.9525 158.763 45.7483 157.967 45.7483 156.989C45.7483 156.01 44.9525 155.215 43.9741 155.215Z" fill="#333333"/>
<path d="M143.01 163.832C139.237 163.832 136.167 160.762 136.167 156.989C136.167 153.215 139.237 150.145 143.01 150.145C146.784 150.145 149.853 153.215 149.853 156.989C149.853 160.762 146.784 163.832 143.01 163.832ZM143.01 155.215C142.032 155.215 141.236 156.01 141.236 156.989C141.236 157.967 142.032 158.763 143.01 158.763C143.988 158.763 144.784 157.967 144.784 156.989C144.784 156.01 143.988 155.215 143.01 155.215Z" fill="#333333"/>
<path d="M76.9842 163.832C73.2108 163.832 70.1409 160.762 70.1409 156.989C70.1409 153.215 73.2108 150.145 76.9842 150.145C80.7577 150.145 83.8276 153.215 83.8276 156.989C83.8276 160.762 80.7577 163.832 76.9842 163.832ZM76.9842 155.215C76.0059 155.215 75.21 156.01 75.21 156.989C75.21 157.967 76.0059 158.763 76.9842 158.763C77.9626 158.763 78.7584 157.967 78.7584 156.989C78.7584 156.01 77.9626 155.215 76.9842 155.215Z" fill="#333333"/>
<path d="M176.025 163.832C172.252 163.832 169.182 160.762 169.182 156.989C169.182 153.215 172.252 150.145 176.025 150.145C179.799 150.145 182.869 153.215 182.869 156.989C182.869 160.762 179.799 163.832 176.025 163.832ZM176.025 155.215C175.047 155.215 174.251 156.01 174.251 156.989C174.251 157.967 175.047 158.763 176.025 158.763C177.004 158.763 177.8 157.967 177.8 156.989C177.8 156.01 177.003 155.215 176.025 155.215Z" fill="#333333"/>
<path d="M109.999 163.832C106.226 163.832 103.156 160.762 103.156 156.989C103.156 153.215 106.226 150.145 109.999 150.145C113.773 150.145 116.843 153.215 116.843 156.989C116.843 160.762 113.773 163.832 109.999 163.832ZM109.999 155.215C109.021 155.215 108.225 156.01 108.225 156.989C108.225 157.967 109.021 158.763 109.999 158.763C110.978 158.763 111.774 157.967 111.774 156.989C111.774 156.01 110.978 155.215 109.999 155.215Z" fill="#333333"/>
<path d="M165.432 89.7048C164.268 89.7048 163.219 88.8973 162.959 87.7126C158.853 68.9903 144.96 53.6739 126.701 47.7405C125.369 47.3076 124.641 45.8781 125.074 44.5465C125.506 43.2153 126.937 42.4874 128.267 42.9193C148.231 49.4062 163.421 66.1541 167.911 86.6268C168.211 87.9939 167.345 89.3454 165.978 89.6455C165.795 89.6855 165.612 89.7048 165.432 89.7048Z" fill="white"/>
<path d="M118.363 45.7209C118.239 45.7209 118.114 45.7118 117.987 45.6931C115.353 45.3012 112.657 45.1025 109.975 45.1025C108.575 45.1025 107.44 43.9675 107.44 42.5679C107.44 41.1684 108.575 40.0334 109.975 40.0334C112.906 40.0334 115.852 40.2503 118.733 40.6787C120.117 40.8845 121.073 42.1741 120.867 43.5585C120.68 44.8166 119.598 45.7209 118.363 45.7209Z" fill="white"/>
</g>
<defs>
<clipPath id="clip0_11_1772">
<rect width="220" height="220" fill="white"/>
</clipPath>
</defs>
</svg>
